<svg height="512" viewBox="0 0 64 64" width="512" xmlns="http://www.w3.org/2000/svg"><g id="outline"><path d="m15 39a3 3 0 1 0 3 3 3 3 0 0 0 -3-3zm0 4a1 1 0 1 1 1-1 1 1 0 0 1 -1 1z"/><path d="m47 39a3 3 0 1 0 3 3 3 3 0 0 0 -3-3zm0 4a1 1 0 1 1 1-1 1 1 0 0 1 -1 1z"/><path d="m42.707 20.293a3.791 3.791 0 0 0 -2.707-1.293h-29a1 1 0 0 0 -.986.835l-1 6a1 1 0 0 0 .986 1.165h9.586l2.707 2.707a1 1 0 0 0 .707.293h25a1 1 0 0 0 1-1v-2a1 1 0 0 0 -.293-.707zm-23.707 4.707h-7.819l.666-4h7.153zm12 3h-7.586l-2.414-2.414v-4.586h10zm16 0h-14v-7h7a1.893 1.893 0 0 1 1.293.707l5.707 5.707z"/><path d="m58.476 26.1-5.936-1.974-6.713-6.713a8.186 8.186 0 0 0 -5.827-2.413h-28c-3.87 0-6.417 2.131-6.992 5.876l-1 8a.852.852 0 0 0 -.008.124v7.169a2.873 2.873 0 0 0 -1.108.705 2.944 2.944 0 0 0 -.892 2.126v1a3 3 0 0 0 3 3h3.08a6.991 6.991 0 0 0 13.84 0h18.16a6.991 6.991 0 0 0 13.84 0h7.08a1 1 0 0 0 1-1v-11a5.169 5.169 0 0 0 -3.524-4.9zm-2.717 1.2 2.081.7a3.173 3.173 0 0 1 2 2h-4.62zm-49.759 2.7h1a1 1 0 0 1 0 2h-1zm9 17a5 5 0 1 1 5-5 5.006 5.006 0 0 1 -5 5zm32 0a5 5 0 1 1 5-5 5.006 5.006 0 0 1 -5 5zm13-10h-5v2h5v2h-6.08a6.991 6.991 0 0 0 -13.84 0h-18.16a6.991 6.991 0 0 0 -13.84 0h-3.08a1 1 0 0 1 -1-1v-1a.974.974 0 0 1 .306-.712.957.957 0 0 1 .694-.288h3v-2h-2v-2h1a3 3 0 0 0 0-6h-.867l.855-6.848c.291-1.894 1.397-4.152 5.012-4.152h28a6.2 6.2 0 0 1 4.413 1.827l6.88 6.88a1 1 0 0 0 .391.242l2.163.719-.827 4.132a1 1 0 0 0 .98 1.2h6z"/><path d="m12 29h2v2h-2z"/><path d="m16 29h2v2h-2z"/><path d="m23 37h16v2h-16z"/><path d="m27 32h4v2h-4z"/><path d="m33 32h4v2h-4z"/></g></svg>