<svg width="24.000000000000004" height="24.000000000000004" xmlns="http://www.w3.org/2000/svg">

 <g>
  <title>background</title>
  <rect fill="none" id="canvas_background" height="402" width="582" y="-1" x="-1"/>
 </g>
 <g>
  <title>Layer 1</title>
  <path fill="#222222" id="svg_2" d="m23.189642,13.858358c0.716,-6.027 -0.344,-9.832 -2.256,-11.553l0.001,-0.001c-3.086,-2.939 -13.508,-3.374 -17.2,0.132c-1.658,1.715 -2.242,4.232 -2.306,7.348c-0.064,3.117 -0.14,8.956 5.301,10.54l0.005,0l-0.005,2.419s-0.037,0.98 0.589,1.177c0.716,0.232 1.04,-0.223 3.267,-2.883c3.724,0.323 6.584,-0.417 6.909,-0.525c0.752,-0.252 5.007,-0.815 5.695,-6.654zm-12.237,5.477s-2.357,2.939 -3.09,3.702c-0.24,0.248 -0.503,0.225 -0.499,-0.267c0,-0.323 0.018,-4.016 0.018,-4.016c-4.613,-1.322 -4.341,-6.294 -4.291,-8.895c0.05,-2.602 0.526,-4.733 1.93,-6.168c3.239,-3.037 12.376,-2.358 14.704,-0.17c2.846,2.523 1.833,9.651 1.839,9.894c-0.585,4.874 -4.033,5.183 -4.667,5.394c-0.271,0.09 -2.786,0.737 -5.944,0.526z"/>
  <path fill="#222222" id="svg_3" d="m12.222,4.297c-0.385,0 -0.385,0.6 0,0.605c2.987,0.023 5.447,2.105 5.474,5.924c0,0.403 0.59,0.398 0.585,-0.005l-0.001,0c-0.032,-4.115 -2.718,-6.501 -6.058,-6.524z"/>
  <path fill="#222222" id="svg_4" d="m16.151,10.193c-0.009,0.398 0.58,0.417 0.585,0.014c0.049,-2.269 -1.35,-4.138 -3.979,-4.335c-0.385,-0.028 -0.425,0.577 -0.041,0.605c2.28,0.173 3.481,1.729 3.435,3.716z"/>
  <path fill="#222222" id="svg_5" d="m15.521,12.774c-0.494,-0.286 -0.997,-0.108 -1.205,0.173l-0.435,0.563c-0.221,0.286 -0.634,0.248 -0.634,0.248c-3.014,-0.797 -3.82,-3.951 -3.82,-3.951s-0.037,-0.427 0.239,-0.656l0.544,-0.45c0.272,-0.216 0.444,-0.736 0.167,-1.247c-0.74,-1.337 -1.237,-1.798 -1.49,-2.152c-0.266,-0.333 -0.666,-0.408 -1.082,-0.183l-0.009,0c-0.865,0.506 -1.812,1.453 -1.509,2.428c0.517,1.028 1.467,4.305 4.495,6.781c1.423,1.171 3.675,2.371 4.631,2.648l0.009,0.014c0.942,0.314 1.858,-0.67 2.347,-1.561l0,-0.007c0.217,-0.431 0.145,-0.839 -0.172,-1.106c-0.562,-0.548 -1.41,-1.153 -2.076,-1.542z"/>
  <path fill="#222222" id="svg_6" d="m13.169,8.104c0.961,0.056 1.427,0.558 1.477,1.589c0.018,0.403 0.603,0.375 0.585,-0.028c-0.064,-1.346 -0.766,-2.096 -2.03,-2.166c-0.385,-0.023 -0.421,0.582 -0.032,0.605z"/>
 </g>
</svg>